PathFileType	4	(X/Y/Z)	Patient4_TMGait_0pt5_01_right_35.trc.trc
DataRate	CameraRate	NumFrames	NumMarkers	Units	OrigDataRate	OrigDataStartFrame	OrigNumFrames
72.538860103627	72.538860103627	4	33	mm	72.538860103627	106	       141
Frame#	Time	L.ASIS			Sacral			L.Shoulder			Chest			R.Shoulder			Neck			R.ASIS			R.Thigh.Superior			R.Thigh.Lateral			R.Thigh.Inferior			R.Patella			L.Thigh.Superior			L.Thigh.Lateral			L.Thigh.Inferior			L.Patella			L.Shank.Superior			L.Shank.Lateral			L.Shank.Inferior			R.Shank.Superior			R.Shank.Lateral			R.Shank.Inferior			R.Heel			R.Midfoot.Superior			R.Midfoot.Lateral			R.Toe			L.Heel			L.Midfoot.Lateral			L.Midfoot.Superior			L.Toe			L.Elbow			L.Wrist			R.Elbow			R.Wrist			
		X1	Y1	Z1	X2	Y2	Z2	X3	Y3	Z3	X4	Y4	Z4	X5	Y5	Z5	X6	Y6	Z6	X7	Y7	Z7	X8	Y8	Z8	X9	Y9	Z9	X10	Y10	Z10	X11	Y11	Z11	X12	Y12	Z12	X13	Y13	Z13	X14	Y14	Z14	X15	Y15	Z15	X16	Y16	Z16	X17	Y17	Z17	X18	Y18	Z18	X19	Y19	Z19	X20	Y20	Z20	X21	Y21	Z21	X22	Y22	Z22	X23	Y23	Z23	X24	Y24	Z24	X25	Y25	Z25	X26	Y26	Z26	X27	Y27	Z27	X28	Y28	Z28	X29	Y29	Z29	X30	Y30	Z30	X31	Y31	Z31	X32	Y32	Z32	X33	Y33	Z33	

106	47.377500000000	788.790270596345	962.880303317736	292.838171051781	568.350272534425	1016.254902260232	439.314877611063	766.322120850175	1440.331124745405	265.102752782912	856.531218807614	1365.927345812607	431.986573771497	764.157961850336	1443.954893996954	601.198454980659	763.914958903265	1501.877601943981	415.080759436678	786.757948315503	951.963497014301	568.526291602587	867.398191647075	784.049021143868	548.326431599028	825.173811960486	663.378357899186	621.075782185575	918.239370692890	622.018487219174	547.148415993155	937.292083831187	510.281950088976	572.413912271615	821.454081179871	747.779841925303	325.030940491864	724.915285986801	638.224241576089	267.341000556975	802.213466770191	556.186762302252	332.447290955928	797.025607727005	487.502634628108	344.535182135998	771.078817041841	417.314290650999	337.552280768419	681.281652753406	303.112775280618	288.435812131939	728.520409133505	193.653933204027	364.069819969204	865.273483891436	432.839169065897	576.062725748537	745.176343260289	384.328979528527	630.654101413692	741.795841217454	274.376242156750	581.947816675114	547.465714849518	197.763863207026	547.386620038297	718.735852808025	151.980035932281	592.318820835001	608.280676155051	138.445672589918	619.521852694425	791.671049176562	43.352969842466	614.732547785937	597.107770510369	38.429979095395	408.294338393009	672.113002729276	34.859558122969	327.991143782327	755.578551056274	95.790978664397	354.598812173633	884.357134694327	41.109386720513	328.910171951156	751.836577134071	1114.144793959289	92.041431603377	967.192664141706	968.215215551610	71.070979278954	672.820984366886	1108.380656568488	710.785966593803	718.668870260657	850.034094057468	718.750635602765	
107	47.391285714286	788.930210264471	963.105604859100	292.768269843576	568.019630321085	1016.266362679615	438.468986055592	766.691136189195	1440.286125741395	264.088494807216	855.887062872003	1366.311384942121	431.684607019326	762.504250177334	1444.566389282028	600.307074673460	763.187720910931	1502.075016181845	413.956305365814	786.108303757040	952.381103167163	568.367910806918	867.931967128713	786.156814920798	548.213307005868	827.357632328817	664.950017353397	621.153784102566	920.615513667627	624.745984020075	547.021703000181	941.801295096055	514.334409924282	572.464668676634	819.354253885173	746.937042077164	324.833696254499	721.438967920567	638.385330247164	266.892292532901	797.717865460462	555.492088566234	331.866078539833	791.777217100111	487.065655997425	343.925971390814	765.581275783843	417.105309599624	336.999999662670	675.114969427502	303.328471933432	288.070349325881	722.086453406395	193.653326375907	363.658743766721	873.263196728651	434.779535449672	576.029996878950	755.828258318573	380.292102642910	630.449373572773	758.273792623835	270.266611097793	581.739651699755	568.379139089456	183.055432561116	546.601714186475	741.645302805468	147.169024523440	592.255253020823	632.149785909583	127.795193223140	619.410111776120	820.448517278748	43.290169495460	615.748052211475	590.186405292510	38.593305217831	408.187916768597	665.221576699158	34.864468025995	327.939347472002	748.755885294425	95.784743189307	354.403035022355	877.475563333475	40.973457049705	328.875963148362	757.826230009340	1114.532891755603	90.491197438941	978.018019700335	976.105533348882	70.260845015907	662.391227024480	1111.412305542844	708.345977571808	696.939138656227	851.295686725941	716.309387351707	
108	47.405071428571	789.130576697678	963.251233461076	292.827699071895	567.737953132567	1016.178781145291	437.763282162524	767.047636550304	1440.122911735708	263.233182572110	855.266860452809	1366.592268384370	431.519893582578	760.935591103700	1445.104594370084	599.567538510286	762.483934450031	1502.157666393105	412.978236342211	785.539093337034	952.622470928461	568.345668288548	868.073012986653	787.633024298715	548.237600315797	828.766402601841	665.968754838024	621.279480044582	922.047446515040	626.697950320381	546.891453876799	945.169221025246	517.884678563768	572.438549662469	817.316168691749	746.087415293021	324.709269393931	717.996025892773	638.531002079208	266.490356776903	793.247632292826	554.796473244001	331.308435995398	786.560435659166	486.627930929807	343.329780397941	760.100094099946	416.879767113713	336.473582129891	668.954689035562	303.542466290103	287.736390995219	715.659084313969	193.643419469756	363.267120683844	880.518682050606	436.329917402603	576.050329799800	766.407914672093	375.570293916423	630.547662159368	775.083643475610	265.757495887551	581.856898379701	590.601868727634	167.439095689708	546.416483488563	765.422147926686	142.208370696273	592.633927629185	657.329955252179	116.666000109357	619.883772069214	850.213893320853	43.654388411335	617.174961761681	583.279447352208	38.754474287804	408.080223290043	658.327341030243	34.868949028979	327.893297002857	741.932736615763	95.778206522912	354.215551413952	870.593748597574	40.845171462417	328.840621991645	763.553009328974	1114.837856879279	89.257110268776	988.125205342610	983.718874189636	69.912763959369	652.225807251921	1114.596557254841	706.068784028034	676.353372113450	853.369123142762	714.095246976053	
109	47.418857142857	789.386041562074	963.309690783483	293.010288682816	567.511472969254	1015.974841554568	437.206388125785	767.383787937706	1439.816209727689	262.535214001922	854.672107117822	1366.749590852826	431.488857760015	759.458293355476	1445.553755946453	598.972530892571	761.813718959475	1502.109141123122	412.141145636223	785.058454575813	952.671986309692	568.463126136618	867.830435865835	788.445186477126	548.367711950919	829.399736629700	666.404576848203	621.437745000236	922.548879545536	627.834108788513	546.743748924527	947.418052727999	520.878135658184	572.291187744367	815.353882983744	745.222018727264	324.661385287978	714.599590697345	638.650995251903	266.149623345790	788.804225816084	554.095613141015	330.804878269161	781.370554123609	486.178554305771	342.784380085389	754.636282830619	416.630465894049	336.000988160777	662.816706476073	303.744515416219	287.449551115795	709.241702618187	193.616642331683	362.917487784567	887.013145075904	437.506988554474	576.085577877475	776.911420495497	370.339630825053	630.933547095323	792.083223872655	261.101369881737	582.259979354651	614.012877711640	151.426321772166	546.826175958520	789.806222183573	137.438416427941	593.395434314326	683.615070999480	105.515371938243	620.895921077939	880.546658462168	44.760132580965	618.893108905654	576.384989333924	38.908595060400	407.973876526296	651.428251274359	34.873112456700	327.855143653896	735.105773730865	95.770555381301	354.045224621437	863.708537485452	40.727181480401	328.804912095107	769.016901227843	1115.026677858130	88.314978156793	997.507546609905	990.937607536357	70.005426680532	642.458812595522	1117.880703813543	704.002645200840	657.034667921010	856.063451648775	712.161006881664	
